<svg width="16" height="16" viewBox="0 0 16 16" fill="currentColor" xmlns="http://www.w3.org/2000/svg">
<path d="M13.02 4.27336C13.2127 4.4555 13.3252 4.70671 13.3327 4.97174C13.3402 5.23677 13.2421 5.49394 13.06 5.68669L7.39337 11.6867C7.30153 11.7838 7.19117 11.8614 7.0688 11.9151C6.94643 11.9688 6.81455 11.9975 6.68093 11.9993C6.54731 12.0012 6.41468 11.9762 6.29086 11.926C6.16704 11.8757 6.05455 11.8012 5.96004 11.7067L2.96004 8.70669C2.7834 8.51712 2.68724 8.26639 2.69181 8.00733C2.69638 7.74826 2.80133 7.50108 2.98454 7.31786C3.16776 7.13464 3.41494 7.02969 3.67401 7.02512C3.93308 7.02055 4.18381 7.11672 4.37337 7.29336L6.64671 9.56536L11.6067 4.31336C11.7889 4.12068 12.0401 4.00824 12.3051 4.00074C12.5701 3.99324 12.8273 4.0913 13.02 4.27336Z"/>
</svg>
