<svg width="18" height="18" viewBox="0 0 18 18" fill="#155DFC" xmlns="http://www.w3.org/2000/svg">
<path d="M13 0C15.7614 1.28851e-07 18 2.23858 18 5V13C18 15.7614 15.7614 18 13 18H5C2.23858 18 1.28855e-07 15.7614 0 13V5C1.28855e-07 2.23858 2.23858 1.28851e-07 5 0H13ZM13.7637 5.01562C13.5748 5.01562 13.4092 5.08685 13.2676 5.22852L7.26465 11.2314L4.75 8.69922C4.60844 8.55813 4.44047 8.4869 4.24609 8.48633C4.05154 8.48586 3.88237 8.55708 3.74023 8.69922C3.59831 8.84129 3.52422 9.00969 3.51855 9.2041C3.51292 9.39848 3.58122 9.56643 3.72266 9.70801L6.76855 12.7539C6.91022 12.8956 7.07576 12.9668 7.26465 12.9668C7.45351 12.9668 7.61909 12.8956 7.76074 12.7539L14.2598 6.2373C14.4012 6.09623 14.4716 5.92819 14.4717 5.7334C14.4717 5.53855 14.4012 5.3701 14.2598 5.22852C14.1181 5.08688 13.9525 5.01566 13.7637 5.01562Z"/>
</svg>
