<svg width="20" height="20" viewBox="0 0 20 20" fill="currentColor" xmlns="http://www.w3.org/2000/svg">
<path d="M13.8721 5.53872C14.0348 5.37601 14.2986 5.37601 14.4613 5.53872C14.6241 5.70145 14.6241 5.9652 14.4613 6.12792L10.5892 9.99999L14.4613 13.8721C14.6241 14.0347 14.6241 14.2986 14.4613 14.4612C14.2986 14.624 14.0348 14.624 13.8721 14.4612L10.0001 10.5892L6.12799 14.4612C5.96526 14.624 5.70151 14.624 5.53879 14.4612C5.37607 14.2986 5.37607 14.0347 5.53879 13.8721L9.41089 9.99999L5.53879 6.12792C5.37611 5.9652 5.37609 5.70143 5.53879 5.53872C5.70149 5.37607 5.96528 5.37607 6.12799 5.53872L10.0001 9.41082L13.8721 5.53872Z"  fill-opacity="0.5"/>
<path d="M13.7302 5.39813C13.9709 5.15738 14.3615 5.15661 14.6023 5.39716C14.8432 5.63799 14.8432 6.02839 14.6023 6.26923L10.8708 9.99969L14.6023 13.7302C14.8432 13.9709 14.8432 14.3615 14.6023 14.6022C14.3615 14.8431 13.971 14.8431 13.7302 14.6022V14.6013L9.99976 10.8708L6.26929 14.6022C6.02845 14.8431 5.63805 14.8431 5.39722 14.6022C5.15668 14.3614 5.15647 13.9708 5.39722 13.7302H5.39819L9.12769 9.99969L5.39722 6.26923C5.1566 6.02841 5.15644 5.63795 5.39722 5.39716C5.60788 5.18655 5.93328 5.16018 6.17261 5.31805L6.26929 5.39716L9.99976 9.12762L13.7302 5.39813Z" stroke-opacity="0.5" stroke-width="0.4" stroke-linejoin="round"/>
</svg>
