<svg width="16" height="16" viewBox="0 0 16 16" fill="none" stroke="currentColor" xmlns="http://www.w3.org/2000/svg">
<path d="M10.6666 13.3333V2.66668C10.6666 2.31305 10.5261 1.97392 10.2761 1.72387C10.026 1.47382 9.68687 1.33334 9.33325 1.33334H6.66659C6.31296 1.33334 5.97383 1.47382 5.72378 1.72387C5.47373 1.97392 5.33325 2.31305 5.33325 2.66668V13.3333" stroke-width="1.33333" stroke-linecap="round" stroke-linejoin="round"/>
<path d="M13.3333 4H2.66659C1.93021 4 1.33325 4.59695 1.33325 5.33333V12C1.33325 12.7364 1.93021 13.3333 2.66659 13.3333H13.3333C14.0696 13.3333 14.6666 12.7364 14.6666 12V5.33333C14.6666 4.59695 14.0696 4 13.3333 4Z" stroke-width="1.33333" stroke-linecap="round" stroke-linejoin="round"/>
</svg>
