<svg width="16" height="16" viewBox="0 0 16 16" fill="currentColor" stroke="currentColor" xmlns="http://www.w3.org/2000/svg">
<path d="M7.33341 10.0067C7.33341 10.3749 7.63189 10.6734 8.00008 10.6734C8.36827 10.6734 8.66675 10.3749 8.66675 10.0067C8.66675 9.6385 8.36827 9.34003 8.00008 9.34003C7.63189 9.34003 7.33341 9.6385 7.33341 10.0067Z"  stroke-linecap="round" stroke-linejoin="round"/>
<path d="M7.33341 6.00669C7.33341 6.37488 7.63189 6.67336 8.00008 6.67336C8.36827 6.67336 8.66675 6.37488 8.66675 6.00669C8.66675 5.6385 8.36827 5.34003 8.00008 5.34003C7.63189 5.34003 7.33341 5.6385 7.33341 6.00669Z"  stroke-linecap="round" stroke-linejoin="round"/>
<path d="M12.0002 10.0067C12.0002 10.3749 12.2986 10.6734 12.6668 10.6734C13.035 10.6734 13.3335 10.3749 13.3335 10.0067C13.3335 9.6385 13.035 9.34003 12.6668 9.34003C12.2986 9.34003 12.0002 9.6385 12.0002 10.0067Z"  stroke-linecap="round" stroke-linejoin="round"/>
<path d="M12.0002 6.00669C12.0002 6.37488 12.2986 6.67336 12.6668 6.67336C13.035 6.67336 13.3335 6.37488 13.3335 6.00669C13.3335 5.6385 13.035 5.34003 12.6668 5.34003C12.2986 5.34003 12.0002 5.6385 12.0002 6.00669Z"  stroke-linecap="round" stroke-linejoin="round"/>
<path d="M2.66667 10.0067C2.66667 10.3749 2.96514 10.6734 3.33333 10.6734C3.70152 10.6734 4 10.3749 4 10.0067C4 9.6385 3.70152 9.34003 3.33333 9.34003C2.96514 9.34003 2.66667 9.6385 2.66667 10.0067Z"  stroke-linecap="round" stroke-linejoin="round"/>
<path d="M2.66667 6.00669C2.66667 6.37488 2.96514 6.67336 3.33333 6.67336C3.70152 6.67336 4 6.37488 4 6.00669C4 5.6385 3.70152 5.34003 3.33333 5.34003C2.96514 5.34003 2.66667 5.6385 2.66667 6.00669Z"  stroke-linecap="round" stroke-linejoin="round"/>
</svg>
