<svg width="24" height="24" viewBox="0 0 24 24" fill="currentColor" xmlns="http://www.w3.org/2000/svg">
<path d="M10.9501 13.7L9.52515 12.275C9.32515 12.075 9.09181 11.975 8.82515 11.975C8.55848 11.975 8.32515 12.075 8.12515 12.275C7.92515 12.475 7.82515 12.7127 7.82515 12.988C7.82515 13.2633 7.92515 13.5007 8.12515 13.7L10.2501 15.85C10.4501 16.05 10.6835 16.15 10.9501 16.15C11.2168 16.15 11.4501 16.05 11.6501 15.85L15.9001 11.6C16.1001 11.4 16.2001 11.1627 16.2001 10.888C16.2001 10.6133 16.1001 10.3757 15.9001 10.175C15.7001 9.97433 15.4628 9.87433 15.1881 9.87499C14.9135 9.87566 14.6758 9.97566 14.4751 10.175L10.9501 13.7ZM8.48815 21.288C7.39615 20.8127 6.44615 20.171 5.63815 19.363C4.83015 18.555 4.18848 17.605 3.71315 16.513C3.23781 15.421 3.00015 14.25 3.00015 13C3.00015 11.75 3.23781 10.5793 3.71315 9.48799C4.18848 8.39666 4.82981 7.44666 5.63715 6.63799C6.44448 5.82933 7.39448 5.18766 8.48715 4.71299C9.57981 4.23833 10.7508 4.00066 12.0001 3.99999C13.2495 3.99933 14.4205 4.23699 15.5131 4.71299C16.6058 5.18899 17.5558 5.83066 18.3631 6.63799C19.1705 7.44533 19.8121 8.39533 20.2881 9.48799C20.7641 10.5807 21.0015 11.7513 21.0001 13C20.9988 14.2487 20.7615 15.4197 20.2881 16.513C19.8148 17.6063 19.1731 18.5563 18.3631 19.363C17.5531 20.1697 16.6031 20.8113 15.5131 21.288C14.4231 21.7647 13.2521 22.002 12.0001 22C10.7481 21.998 9.57748 21.7607 8.48815 21.288ZM2.05015 7.29999C1.86681 7.11666 1.77515 6.88333 1.77515 6.59999C1.77515 6.31666 1.86681 6.08333 2.05015 5.89999L4.90015 3.04999C5.08348 2.86666 5.31681 2.77499 5.60015 2.77499C5.88348 2.77499 6.11681 2.86666 6.30015 3.04999C6.48348 3.23333 6.57515 3.46666 6.57515 3.74999C6.57515 4.03333 6.48348 4.26666 6.30015 4.44999L3.45015 7.29999C3.26681 7.48333 3.03348 7.57499 2.75015 7.57499C2.46681 7.57499 2.23348 7.48333 2.05015 7.29999ZM21.9501 7.29999C21.7668 7.48333 21.5335 7.57499 21.2501 7.57499C20.9668 7.57499 20.7335 7.48333 20.5501 7.29999L17.7001 4.44999C17.5168 4.26666 17.4251 4.03333 17.4251 3.74999C17.4251 3.46666 17.5168 3.23333 17.7001 3.04999C17.8835 2.86666 18.1168 2.77499 18.4001 2.77499C18.6835 2.77499 18.9168 2.86666 19.1001 3.04999L21.9501 5.89999C22.1335 6.08333 22.2251 6.31666 22.2251 6.59999C22.2251 6.88333 22.1335 7.11666 21.9501 7.29999ZM12.0001 20C13.9501 20 15.6045 19.321 16.9631 17.963C18.3218 16.605 19.0008 14.9507 19.0001 13C18.9995 11.0493 18.3205 9.39533 16.9631 8.03799C15.6058 6.68066 13.9515 6.00133 12.0001 5.99999C10.0488 5.99866 8.39481 6.67799 7.03815 8.03799C5.68148 9.39799 5.00215 11.052 5.00015 13C4.99815 14.948 5.67748 16.6023 7.03815 17.963C8.39881 19.3237 10.0528 20.0027 12.0001 20Z"/>
</svg>
