<svg width="13" height="13" viewBox="0 0 13 13" fill="currentColor" xmlns="http://www.w3.org/2000/svg">
<path d="M6.49992 3.79165C6.35626 3.79165 6.21849 3.84871 6.11691 3.9503C6.01532 4.05188 5.95825 4.18965 5.95825 4.33331V6.49998C5.95825 6.64364 6.01532 6.78141 6.11691 6.883C6.21849 6.98458 6.35626 7.04165 6.49992 7.04165C6.64358 7.04165 6.78136 6.98458 6.88294 6.883C6.98452 6.78141 7.04159 6.64364 7.04159 6.49998V4.33331C7.04159 4.18965 6.98452 4.05188 6.88294 3.9503C6.78136 3.84871 6.64358 3.79165 6.49992 3.79165ZM6.99825 8.46081C6.9864 8.4263 6.97001 8.39351 6.9495 8.36331L6.8845 8.28206C6.80833 8.2069 6.71161 8.15599 6.60653 8.13574C6.50145 8.1155 6.39273 8.12683 6.29409 8.16831C6.22845 8.19574 6.16799 8.23422 6.11534 8.28206C6.06514 8.33268 6.02542 8.3927 5.99846 8.4587C5.97151 8.52469 5.95784 8.59536 5.95825 8.66665C5.95911 8.73743 5.97383 8.80736 6.00159 8.87248C6.02592 8.9397 6.06473 9.00074 6.11528 9.05129C6.16582 9.10184 6.22687 9.14065 6.29409 9.16498C6.35893 9.19364 6.42903 9.20844 6.49992 9.20844C6.57081 9.20844 6.64092 9.19364 6.70575 9.16498C6.77297 9.14065 6.83402 9.10184 6.88457 9.05129C6.93511 9.00074 6.97393 8.9397 6.99825 8.87248C7.02601 8.80736 7.04073 8.73743 7.04159 8.66665C7.04425 8.63058 7.04425 8.59438 7.04159 8.55831C7.03226 8.52377 7.01764 8.49088 6.99825 8.46081ZM6.49992 1.08331C5.42861 1.08331 4.38135 1.40099 3.49058 1.99619C2.59982 2.59138 1.90555 3.43734 1.49557 4.42711C1.0856 5.41688 0.978331 6.50599 1.18733 7.55672C1.39634 8.60745 1.91222 9.57261 2.66976 10.3301C3.42729 11.0877 4.39245 11.6036 5.44318 11.8126C6.49391 12.0216 7.58302 11.9143 8.57279 11.5043C9.56256 11.0944 10.4085 10.4001 11.0037 9.50932C11.5989 8.61855 11.9166 7.5713 11.9166 6.49998C11.9166 5.78865 11.7765 5.08429 11.5043 4.42711C11.2321 3.76993 10.8331 3.1728 10.3301 2.66982C9.8271 2.16683 9.22997 1.76785 8.57279 1.49563C7.91561 1.22342 7.21125 1.08331 6.49992 1.08331ZM6.49992 10.8333C5.64287 10.8333 4.80506 10.5792 4.09245 10.103C3.37984 9.62686 2.82442 8.95009 2.49644 8.15827C2.16846 7.36646 2.08265 6.49517 2.24985 5.65459C2.41705 4.814 2.82976 4.04188 3.43579 3.43585C4.04182 2.82982 4.81395 2.41711 5.65453 2.24991C6.49511 2.08271 7.3664 2.16852 8.15822 2.4965C8.95003 2.82448 9.6268 3.3799 10.103 4.09251C10.5791 4.80512 10.8333 5.64293 10.8333 6.49998C10.8333 7.64925 10.3767 8.75145 9.56405 9.56411C8.75139 10.3768 7.64919 10.8333 6.49992 10.8333Z"/>
</svg>
