<svg width="20" height="20" viewBox="0 0 20 20" fill="currentColor" xmlns="http://www.w3.org/2000/svg">
<path d="M7.25841 6.42502L9.16675 4.50835V12.5C9.16675 12.721 9.25455 12.933 9.41083 13.0893C9.56711 13.2456 9.77907 13.3333 10.0001 13.3333C10.2211 13.3333 10.4331 13.2456 10.5893 13.0893C10.7456 12.933 10.8334 12.721 10.8334 12.5V4.50835L12.7417 6.42502C12.8192 6.50312 12.9114 6.56512 13.0129 6.60742C13.1145 6.64973 13.2234 6.67151 13.3334 6.67151C13.4434 6.67151 13.5523 6.64973 13.6539 6.60742C13.7554 6.56512 13.8476 6.50312 13.9251 6.42502C14.0032 6.34755 14.0652 6.25538 14.1075 6.15383C14.1498 6.05228 14.1716 5.94336 14.1716 5.83335C14.1716 5.72334 14.1498 5.61442 14.1075 5.51287C14.0652 5.41132 14.0032 5.31915 13.9251 5.24168L10.5917 1.90835C10.5125 1.83248 10.419 1.77301 10.3167 1.73335C10.1139 1.65 9.8863 1.65 9.68341 1.73335C9.58112 1.77301 9.48767 1.83248 9.40841 1.90835L6.07508 5.24168C5.99738 5.31938 5.93575 5.41162 5.8937 5.51314C5.85165 5.61466 5.83 5.72347 5.83 5.83335C5.83 5.94323 5.85165 6.05204 5.8937 6.15356C5.93575 6.25507 5.99738 6.34732 6.07508 6.42502C6.15278 6.50271 6.24502 6.56435 6.34654 6.6064C6.44806 6.64845 6.55687 6.67009 6.66675 6.67009C6.77663 6.67009 6.88544 6.64845 6.98696 6.6064C7.08847 6.56435 7.18072 6.50271 7.25841 6.42502ZM17.5001 11.6667C17.2791 11.6667 17.0671 11.7545 16.9108 11.9108C16.7545 12.067 16.6667 12.279 16.6667 12.5V15.8333C16.6667 16.0544 16.579 16.2663 16.4227 16.4226C16.2664 16.5789 16.0544 16.6667 15.8334 16.6667H4.16675C3.94573 16.6667 3.73377 16.5789 3.57749 16.4226C3.42121 16.2663 3.33341 16.0544 3.33341 15.8333V12.5C3.33341 12.279 3.24562 12.067 3.08934 11.9108C2.93306 11.7545 2.7211 11.6667 2.50008 11.6667C2.27907 11.6667 2.06711 11.7545 1.91083 11.9108C1.75455 12.067 1.66675 12.279 1.66675 12.5V15.8333C1.66675 16.4964 1.93014 17.1323 2.39898 17.6011C2.86782 18.07 3.50371 18.3333 4.16675 18.3333H15.8334C16.4965 18.3333 17.1323 18.07 17.6012 17.6011C18.07 17.1323 18.3334 16.4964 18.3334 15.8333V12.5C18.3334 12.279 18.2456 12.067 18.0893 11.9108C17.9331 11.7545 17.7211 11.6667 17.5001 11.6667Z"/>
</svg>
