<svg width="16" height="16" viewBox="0 0 16 16" fill="none" stroke="currentColor" xmlns="http://www.w3.org/2000/svg">
<path d="M7.99992 14.6666C11.6818 14.6666 14.6666 11.6819 14.6666 7.99998C14.6666 4.31808 11.6818 1.33331 7.99992 1.33331C4.31802 1.33331 1.33325 4.31808 1.33325 7.99998C1.33325 11.6819 4.31802 14.6666 7.99992 14.6666Z" stroke-width="1.33"/>
<path d="M7.99992 10.6666C9.47268 10.6666 10.6666 9.47274 10.6666 7.99998C10.6666 6.52722 9.47268 5.33331 7.99992 5.33331C6.52716 5.33331 5.33325 6.52722 5.33325 7.99998C5.33325 9.47274 6.52716 10.6666 7.99992 10.6666Z" stroke-width="1.33"/>
<path d="M9.99992 5.99998L12.6666 3.33331M3.33325 12.6666L5.99992 9.99998M5.99992 5.99998L3.33325 3.33331M12.6666 12.6666L9.99992 9.99998" stroke-width="1.33"/>
</svg>
