<svg width="16" height="16" viewBox="0 0 16 16" fill="currentColor" xmlns="http://www.w3.org/2000/svg">
<path d="M7.99992 11.3334C7.82311 11.3334 7.65354 11.2631 7.52852 11.1381C7.40349 11.0131 7.33326 10.8435 7.33326 10.6667V8.00002C7.33326 7.82321 7.40349 7.65364 7.52852 7.52862C7.65354 7.40359 7.82311 7.33335 7.99992 7.33335C8.17673 7.33335 8.3463 7.40359 8.47133 7.52862C8.59635 7.65364 8.66659 7.82321 8.66659 8.00002V10.6667C8.66659 10.8435 8.59635 11.0131 8.47133 11.1381C8.3463 11.2631 8.17673 11.3334 7.99992 11.3334ZM8.61326 5.58669C8.59866 5.62917 8.57849 5.66952 8.55326 5.70669L8.47326 5.80669C8.37951 5.89919 8.26046 5.96186 8.13113 5.98677C8.00181 6.01169 7.868 5.99774 7.74659 5.94669C7.6658 5.91293 7.59139 5.86557 7.52659 5.80669C7.4648 5.74439 7.41592 5.67052 7.38274 5.58929C7.34957 5.50807 7.33275 5.42109 7.33326 5.33335C7.33431 5.24623 7.35243 5.16017 7.38659 5.08002C7.41653 4.99729 7.4643 4.92216 7.52651 4.85994C7.58873 4.79773 7.66386 4.74996 7.74659 4.72002C7.82639 4.68475 7.91268 4.66653 7.99992 4.66653C8.08717 4.66653 8.17346 4.68475 8.25326 4.72002C8.33599 4.74996 8.41112 4.79773 8.47333 4.85994C8.53554 4.92216 8.58331 4.99729 8.61326 5.08002C8.64742 5.16017 8.66554 5.24623 8.66659 5.33335C8.66986 5.37774 8.66986 5.4223 8.66659 5.46669C8.65511 5.5092 8.63712 5.54968 8.61326 5.58669ZM7.99992 14.6667C6.68138 14.6667 5.39245 14.2757 4.29612 13.5432C3.19979 12.8106 2.34531 11.7694 1.84072 10.5512C1.33614 9.33307 1.20412 7.99262 1.46135 6.69942C1.71859 5.40621 2.35353 4.21832 3.28588 3.28597C4.21823 2.35362 5.40611 1.71869 6.69932 1.46145C7.99253 1.20422 9.33297 1.33624 10.5511 1.84082C11.7693 2.34541 12.8105 3.19989 13.5431 4.29622C14.2756 5.39255 14.6666 6.68148 14.6666 8.00002C14.6666 8.8755 14.4942 9.74241 14.1591 10.5512C13.8241 11.3601 13.333 12.095 12.714 12.7141C12.0949 13.3331 11.36 13.8242 10.5511 14.1592C9.74231 14.4942 8.8754 14.6667 7.99992 14.6667ZM7.99992 2.66669C6.94509 2.66669 5.91394 2.97948 5.03688 3.56552C4.15982 4.15155 3.47623 4.9845 3.07256 5.95904C2.6689 6.93358 2.56328 8.00594 2.76907 9.0405C2.97486 10.0751 3.48281 11.0254 4.22869 11.7713C4.97457 12.5171 5.92488 13.0251 6.95944 13.2309C7.99401 13.4367 9.06636 13.331 10.0409 12.9274C11.0154 12.5237 11.8484 11.8401 12.4344 10.9631C13.0205 10.086 13.3333 9.05485 13.3333 8.00002C13.3333 6.58553 12.7714 5.22898 11.7712 4.22878C10.771 3.22859 9.41441 2.66669 7.99992 2.66669Z"/>
</svg>
