<svg width="80" height="36" viewBox="0 0 80 36" fill="none" xmlns="http://www.w3.org/2000/svg">
<path d="M5 12.1986H7.83066V23.7517H5V12.1986Z" fill="#333333"/>
<path d="M9.51847 12.1986H20.03V14.6152H16.1896V23.7517H13.3589V14.6152H9.51847V12.1986Z" fill="#333333"/>
<path d="M21.7152 12.1986H26.6316C26.742 13.0703 26.9848 15.0234 27.36 18.0579C27.4703 18.8083 27.5752 19.5476 27.6745 20.2759C27.7738 21.0041 27.8676 21.6993 27.9559 22.3614H28.3035C28.4801 20.7283 28.6953 19.2276 28.9491 17.8593C29.0705 16.8883 29.1864 15.8841 29.2967 14.8469C29.4071 13.8097 29.5175 12.9269 29.6278 12.1986H34.5277V23.7517H31.9122V13.5724H31.5315C31.4432 14.091 31.3383 14.6538 31.217 15.2607C31.1066 15.8676 31.0018 16.469 30.9024 17.0648C30.7479 18.1352 30.5879 19.2662 30.4224 20.4579C30.2679 21.6386 30.1134 22.7366 29.9589 23.7517H26.284C26.1295 22.7366 25.9695 21.6386 25.8039 20.4579C25.6494 19.2662 25.5005 18.1352 25.357 17.0648C25.2577 16.469 25.1528 15.8841 25.0425 15.3103C24.9321 14.7255 24.8273 14.1462 24.728 13.5724H24.3472V23.7517H21.7152V12.1986Z" fill="#333333"/>
<path d="M36.5054 17.9917C36.5054 15.9503 37.0793 14.4441 38.227 13.4731C39.3857 12.491 41.0521 12 43.2262 12C45.4112 12 47.0776 12.491 48.2253 13.4731C49.3841 14.4441 49.9635 15.9503 49.9635 17.9917C49.9635 20.0441 49.3841 21.5614 48.2253 22.5434C47.0776 23.5145 45.4112 24 43.2262 24C41.0521 24 39.3857 23.5145 38.227 22.5434C37.0793 21.5614 36.5054 20.0441 36.5054 17.9917ZM39.5016 17.9917C39.5016 18.7641 39.612 19.4152 39.8327 19.9448C40.0644 20.4745 40.4507 20.8828 40.9914 21.1697C41.5432 21.4566 42.2881 21.6 43.2262 21.6C44.1642 21.6 44.9091 21.4566 45.4609 21.1697C46.0127 20.8828 46.3989 20.4745 46.6196 19.9448C46.8514 19.4152 46.9673 18.7641 46.9673 17.9917C46.9673 17.2193 46.8514 16.5738 46.6196 16.0552C46.3989 15.5255 46.0127 15.1172 45.4609 14.8303C44.9091 14.5324 44.1642 14.3834 43.2262 14.3834C42.2881 14.3834 41.5432 14.5324 40.9914 14.8303C40.4507 15.1172 40.0644 15.5255 39.8327 16.0552C39.612 16.5738 39.5016 17.2193 39.5016 17.9917Z" fill="#333333"/>
<path d="M56.5035 12.1986H59.3342V23.7517H56.5035V12.1986Z" fill="#333333"/>
<path d="M67.362 12.1986C68.885 12.1986 70.1265 12.3862 71.0866 12.7614C72.0577 13.1366 72.7861 13.749 73.2716 14.5986C73.7572 15.4372 74 16.5628 74 17.9752C74 19.9834 73.4593 21.451 72.3778 22.3779C71.2962 23.2938 69.6188 23.7517 67.3455 23.7517H62.0483V12.1986H67.362ZM67.2627 21.5007C68.1787 21.5007 68.9181 21.3848 69.4809 21.1531C70.0437 20.9103 70.4575 20.5352 70.7224 20.0276C70.9983 19.509 71.1362 18.8248 71.1362 17.9752C71.1362 17.1255 70.9983 16.4469 70.7224 15.9393C70.4575 15.4207 70.0437 15.0455 69.4809 14.8138C68.9181 14.571 68.1787 14.4497 67.2627 14.4497H63.5382L64.879 13.109V22.8414L63.5382 21.5007H67.2627Z" fill="#333333"/>
</svg>
