<svg width="16" height="16" viewBox="0 0 16 16" fill="currentColor" xmlns="http://www.w3.org/2000/svg">
<path d="M9.17615 6.82067C8.5714 6.21596 7.75736 5.86683 6.9024 5.84548C6.04745 5.82414 5.217 6.13222 4.58282 6.70601L4.46216 6.82067L2.57682 8.70667C1.9628 9.32178 1.61331 10.1524 1.60284 11.0215C1.59237 11.8905 1.92176 12.7293 2.52079 13.359C3.11982 13.9888 3.94112 14.3596 4.80963 14.3925C5.67813 14.4255 6.52516 14.1179 7.17015 13.5353L7.29015 13.4207L8.70482 12.006C8.82439 11.886 8.8938 11.725 8.89897 11.5557C8.90414 11.3864 8.84468 11.2215 8.73266 11.0945C8.62063 10.9674 8.46445 10.8878 8.29584 10.8717C8.12722 10.8557 7.95882 10.9044 7.82482 11.008L7.76215 11.0633L6.34749 12.478C5.98077 12.8469 5.48479 13.0583 4.96474 13.0676C4.44469 13.0768 3.9415 12.8831 3.5619 12.5276C3.1823 12.172 2.95615 11.6825 2.93143 11.163C2.90671 10.6434 3.08536 10.1347 3.42949 9.74467L3.51949 9.64934L5.40482 7.76401C5.59054 7.57825 5.81104 7.4309 6.05371 7.33037C6.29638 7.22984 6.55648 7.1781 6.81915 7.1781C7.08183 7.1781 7.34193 7.22984 7.5846 7.33037C7.82727 7.4309 8.04777 7.57825 8.23349 7.76401C8.35858 7.88901 8.52821 7.9592 8.70506 7.95914C8.8819 7.95908 9.05148 7.88877 9.17649 7.76367C9.30149 7.63858 9.37169 7.46895 9.37162 7.2921C9.37156 7.11526 9.30125 6.94568 9.17615 6.82067ZM13.4188 2.57801C12.8141 1.97329 12 1.62416 11.1451 1.60282C10.2901 1.58147 9.45966 1.88956 8.82549 2.46334L8.70482 2.57801L7.29082 3.99334C7.17126 4.11331 7.10184 4.2743 7.09667 4.44359C7.0915 4.61289 7.15096 4.77781 7.26299 4.90486C7.37501 5.0319 7.53119 5.11154 7.6998 5.1276C7.86842 5.14367 8.03683 5.09495 8.17082 4.99134L8.23349 4.93601L9.64749 3.52201C10.0148 3.15704 10.5094 2.94879 11.0272 2.94105C11.545 2.93332 12.0456 3.12671 12.4236 3.48053C12.8017 3.83435 13.0279 4.32103 13.0544 4.83818C13.081 5.35532 12.906 5.86262 12.5662 6.25334L12.4762 6.34934L10.5902 8.23534C10.2151 8.61028 9.70648 8.82091 9.17615 8.82091C8.64583 8.82091 8.13721 8.61028 7.76215 8.23534C7.70026 8.1734 7.62677 8.12426 7.54588 8.09072C7.46499 8.05718 7.37829 8.0399 7.29072 8.03987C7.20316 8.03984 7.11644 8.05706 7.03553 8.09054C6.95462 8.12402 6.88109 8.17311 6.81915 8.23501C6.75721 8.2969 6.70807 8.37039 6.67453 8.45128C6.641 8.53217 6.62372 8.61887 6.62369 8.70644C6.62366 8.794 6.64087 8.88072 6.67435 8.96163C6.70783 9.04254 6.75693 9.11607 6.81882 9.17801C7.42357 9.78272 8.23762 10.1319 9.09257 10.1532C9.94753 10.1745 10.778 9.86646 11.4122 9.29267L11.5335 9.17801L13.4188 7.29201C14.0437 6.66691 14.3948 5.81922 14.3948 4.93534C14.3948 4.05146 14.0437 3.2031 13.4188 2.57801Z" stroke="white" stroke-width="0.33"/>
</svg>
