<svg width="16" height="16" viewBox="0 0 16 16" fill="none" stroke="currentColor" xmlns="http://www.w3.org/2000/svg">
<path d="M2.66667 3.99998L6.73867 7.07465L6.74 7.07598C7.192 7.40731 7.418 7.57331 7.666 7.63731C7.88506 7.69399 8.11494 7.69399 8.334 7.63731C8.582 7.57331 8.80867 7.40731 9.262 7.07465C9.262 7.07465 11.8733 5.07065 13.3333 3.99998M2 10.5333V5.46665C2 4.71998 2 4.34665 2.14533 4.06131C2.27333 3.80998 2.47667 3.60665 2.728 3.47865C3.01333 3.33331 3.38667 3.33331 4.13333 3.33331H11.8667C12.6133 3.33331 12.9867 3.33331 13.2713 3.47865C13.5227 3.60665 13.7267 3.80998 13.8547 4.06131C14 4.34598 14 4.71931 14 5.46465V10.536C14 11.2813 14 11.6533 13.8547 11.9386C13.7267 12.1896 13.5225 12.3936 13.2713 12.5213C12.9867 12.6666 12.614 12.6666 11.8687 12.6666H4.13133C3.386 12.6666 3.01267 12.6666 2.728 12.5213C2.47713 12.3935 2.27316 12.1895 2.14533 11.9386C2 11.6533 2 11.28 2 10.5333Z" stroke-width="1.33" stroke-linecap="round" stroke-linejoin="round"/>
</svg>
