<svg width="24" height="24" viewBox="0 0 24 24" fill="currentColor" xmlns="http://www.w3.org/2000/svg">
<path d="M8.75 5.5C8.28587 5.5 7.84075 5.68437 7.51256 6.01256C7.18437 6.34075 7 6.78587 7 7.25V16.75C7 17.2141 7.18437 17.6592 7.51256 17.9874C7.84075 18.3156 8.28587 18.5 8.75 18.5C9.21413 18.5 9.65925 18.3156 9.98744 17.9874C10.3156 17.6592 10.5 17.2141 10.5 16.75V7.25C10.5 6.78587 10.3156 6.34075 9.98744 6.01256C9.65925 5.68437 9.21413 5.5 8.75 5.5ZM15.25 5.5C14.7859 5.5 14.3408 5.68437 14.0126 6.01256C13.6844 6.34075 13.5 6.78587 13.5 7.25V16.75C13.5 17.2141 13.6844 17.6592 14.0126 17.9874C14.3408 18.3156 14.7859 18.5 15.25 18.5C15.7141 18.5 16.1592 18.3156 16.4874 17.9874C16.8156 17.6592 17 17.2141 17 16.75V7.25C17 6.78587 16.8156 6.34075 16.4874 6.01256C16.1592 5.68437 15.7141 5.5 15.25 5.5Z"/>
</svg>
