<svg width="20" height="20" viewBox="0 0 20 20" fill="none" stroke="currentColor" xmlns="http://www.w3.org/2000/svg">
<path d="M3.33325 17.5H16.6666M4.72159 10.9892C4.36626 11.3453 4.16667 11.8278 4.16659 12.3308V15H6.85242C7.35575 15 7.83825 14.8 8.19409 14.4433L16.1108 6.52251C16.4659 6.16634 16.6654 5.68385 16.6654 5.18084C16.6654 4.67783 16.4659 4.19534 16.1108 3.83917L15.3291 3.05584C15.1528 2.87947 14.9435 2.73957 14.7131 2.64415C14.4827 2.54872 14.2358 2.49965 13.9864 2.49973C13.737 2.4998 13.4901 2.54903 13.2598 2.6446C13.0295 2.74016 12.8203 2.88019 12.6441 3.05667L4.72159 10.9892Z" stroke-width="1.48" stroke-linecap="round" stroke-linejoin="round"/>
</svg>
