<svg width="16" height="16" viewBox="0 0 16 16" fill="currentColor" xmlns="http://www.w3.org/2000/svg">
<path d="M8 2C6.81331 2 5.65328 2.35189 4.66658 3.01118C3.67989 3.67047 2.91085 4.60754 2.45673 5.7039C2.0026 6.80025 1.88378 8.00665 2.11529 9.17054C2.3468 10.3344 2.91825 11.4035 3.75736 12.2426C4.59648 13.0818 5.66557 13.6532 6.82946 13.8847C7.99335 14.1162 9.19975 13.9974 10.2961 13.5433C11.3925 13.0891 12.3295 12.3201 12.9888 11.3334C13.6481 10.3467 14 9.18669 14 8C13.9985 6.40918 13.3658 4.88395 12.2409 3.75907C11.116 2.63419 9.59083 2.00155 8 2ZM7.41464 4.92683C7.41464 4.77158 7.47631 4.62269 7.58609 4.51291C7.69586 4.40314 7.84475 4.34146 8 4.34146C8.15525 4.34146 8.30414 4.40314 8.41392 4.51291C8.5237 4.62269 8.58537 4.77158 8.58537 4.92683V8.63219C8.58537 8.78744 8.5237 8.93633 8.41392 9.04611C8.30414 9.15589 8.15525 9.21756 8 9.21756C7.84475 9.21756 7.69586 9.15589 7.58609 9.04611C7.47631 8.93633 7.41464 8.78744 7.41464 8.63219V4.92683ZM8 11.4127C7.85528 11.4127 7.71382 11.3698 7.59349 11.2894C7.47316 11.209 7.37937 11.0947 7.32399 10.961C7.26861 10.8273 7.25412 10.6802 7.28235 10.5382C7.31059 10.3963 7.38028 10.2659 7.48261 10.1636C7.58494 10.0612 7.71532 9.99156 7.85725 9.96333C7.99919 9.93509 8.14631 9.94958 8.28001 10.005C8.41372 10.0603 8.52799 10.1541 8.60839 10.2745C8.6888 10.3948 8.73171 10.5363 8.73171 10.681C8.73024 10.8695 8.65551 11.05 8.52332 11.1844C8.39113 11.3187 8.21186 11.3964 8.02342 11.401L8 11.4127Z"/>
</svg>
