<svg width="16" height="16" viewBox="0 0 16 16" fill="currentColor" xmlns="http://www.w3.org/2000/svg">
<path d="M14.4713 7.52865L9.13792 2.19531C9.04468 2.10211 8.92591 2.03864 8.79661 2.01292C8.6673 1.98721 8.53328 2.00041 8.41148 2.05086C8.28968 2.10131 8.18557 2.18673 8.11232 2.29634C8.03906 2.40595 7.99995 2.53481 7.99992 2.66665V5.02998C6.17878 5.19851 4.48607 6.04055 3.25305 7.39133C2.02002 8.74211 1.33543 10.5044 1.33325 12.3333V13.3333C1.33336 13.4717 1.37653 13.6066 1.45677 13.7194C1.53701 13.8321 1.65035 13.9171 1.78107 13.9625C1.91179 14.008 2.0534 14.0116 2.18627 13.9729C2.31914 13.9342 2.43668 13.8551 2.52259 13.7466C3.17582 12.9701 3.97721 12.3314 4.87998 11.8679C5.78276 11.4045 6.76881 11.1255 7.78059 11.0473C7.81392 11.0433 7.89725 11.0366 7.99992 11.03V13.3333C7.99995 13.4651 8.03906 13.594 8.11232 13.7036C8.18557 13.8132 8.28968 13.8987 8.41148 13.9491C8.53328 13.9995 8.6673 14.0127 8.79661 13.987C8.92591 13.9613 9.04468 13.8979 9.13792 13.8046L14.4713 8.47131C14.5962 8.34629 14.6664 8.17676 14.6664 7.99998C14.6664 7.8232 14.5962 7.65367 14.4713 7.52865ZM9.33325 11.724V10.3333C9.33325 10.1565 9.26301 9.98693 9.13799 9.86191C9.01297 9.73688 8.8434 9.66665 8.66659 9.66665C8.49659 9.66665 7.80259 9.69998 7.62525 9.72331C5.82845 9.88868 4.1181 10.5713 2.70125 11.6886C2.86208 10.2183 3.55961 8.85888 4.66029 7.87075C5.76096 6.88263 7.18744 6.33521 8.66659 6.33331C8.8434 6.33331 9.01297 6.26307 9.13799 6.13805C9.26301 6.01303 9.33325 5.84346 9.33325 5.66665V4.27598L13.0573 7.99998L9.33325 11.724Z"/>
</svg>
