<svg width="20" height="20" viewBox="0 0 20 20" fill="currentColor" xmlns="http://www.w3.org/2000/svg">
<path d="M19.3002 5.20001C19.3002 3.54701 17.9532 2.20001 16.3002 2.20001H3.7002C2.0472 2.20001 0.700195 3.54701 0.700195 5.20001V14.8C0.700195 16.453 2.0472 17.8 3.7002 17.8H16.3002C17.9532 17.8 19.3002 16.453 19.3002 14.8V5.20001ZM11.5002 16H3.7002C3.0372 16 2.5002 15.463 2.5002 14.8V5.20001C2.5002 4.53701 3.0372 4.00001 3.7002 4.00001H11.5002V16ZM17.5002 14.8C17.5002 15.463 16.9632 16 16.3002 16H13.3002V4.00001H16.3002C16.9632 4.00001 17.5002 4.53701 17.5002 5.20001V14.8Z"/>
</svg>
