<svg width="16" height="16" viewBox="0 0 16 16" fill="currentColor" xmlns="http://www.w3.org/2000/svg">
<path d="M2.66659 3.59998C2.66659 3.35244 2.76492 3.11505 2.93995 2.94001C3.11499 2.76498 3.35238 2.66665 3.59992 2.66665H7.73325C7.98079 2.66665 8.21818 2.76498 8.39322 2.94001C8.56825 3.11505 8.66659 3.35244 8.66659 3.59998V5.33331C8.66659 5.51012 8.73682 5.67969 8.86185 5.80472C8.98687 5.92974 9.15644 5.99998 9.33325 5.99998C9.51006 5.99998 9.67963 5.92974 9.80466 5.80472C9.92968 5.67969 9.99992 5.51012 9.99992 5.33331V3.59998C9.99992 3.30232 9.94129 3.00757 9.82738 2.73256C9.71347 2.45756 9.54651 2.20768 9.33603 1.9972C9.12555 1.78672 8.87567 1.61976 8.60067 1.50585C8.32566 1.39194 8.03092 1.33331 7.73325 1.33331H3.59992C2.99876 1.33331 2.42223 1.57212 1.99714 1.9972C1.57206 2.42229 1.33325 2.99882 1.33325 3.59998V12.4C1.33325 13.0011 1.57206 13.5777 1.99714 14.0028C2.42223 14.4278 2.99876 14.6666 3.59992 14.6666H7.73325C8.33441 14.6666 8.91094 14.4278 9.33603 14.0028C9.76111 13.5777 9.99992 13.0011 9.99992 12.4V10.6666C9.99992 10.4898 9.92968 10.3203 9.80466 10.1952C9.67963 10.0702 9.51006 9.99998 9.33325 9.99998C9.15644 9.99998 8.98687 10.0702 8.86185 10.1952C8.73682 10.3203 8.66659 10.4898 8.66659 10.6666V12.4C8.66659 12.6475 8.56825 12.8849 8.39322 13.0599C8.21818 13.235 7.98079 13.3333 7.73325 13.3333H3.59992C3.35238 13.3333 3.11499 13.235 2.93995 13.0599C2.76492 12.8849 2.66659 12.6475 2.66659 12.4V3.59998Z"/>
<path d="M11.5287 5.52869C11.6537 5.40371 11.8232 5.3335 12 5.3335C12.1768 5.3335 12.3463 5.40371 12.4713 5.52869L14.4713 7.52869C14.5963 7.65371 14.6665 7.82324 14.6665 8.00002C14.6665 8.1768 14.5963 8.34633 14.4713 8.47135L12.4713 10.4714C12.3456 10.5928 12.1772 10.66 12.0024 10.6585C11.8276 10.657 11.6604 10.5868 11.5368 10.4632C11.4132 10.3396 11.3431 10.1724 11.3415 9.99762C11.34 9.82282 11.4072 9.65442 11.5287 9.52869L12.3907 8.66669H4.66667C4.48986 8.66669 4.32029 8.59645 4.19526 8.47142C4.07024 8.3464 4 8.17683 4 8.00002C4 7.82321 4.07024 7.65364 4.19526 7.52862C4.32029 7.40359 4.48986 7.33335 4.66667 7.33335H12.3907L11.5287 6.47135C11.4037 6.34634 11.3335 6.1768 11.3335 6.00002C11.3335 5.82324 11.4037 5.65371 11.5287 5.52869Z" />
</svg>
