<svg width="16" height="16" viewBox="0 0 16 16" fill="none" xmlns="http://www.w3.org/2000/svg">
<g clip-path="url(#clip0_171_19235)">
<path d="M8 0C5.87875 0 3.8425 0.843375 2.34375 2.34313C0.843465 3.84348 0.000429311 5.87823 0 8C0 10.1209 0.84375 12.1571 2.34375 13.6569C3.8425 15.1566 5.87875 16 8 16C10.1213 16 12.1575 15.1566 13.6562 13.6569C15.1562 12.1571 16 10.1209 16 8C16 5.87913 15.1562 3.84288 13.6562 2.34313C12.1575 0.843375 10.1213 0 8 0Z" fill="url(#paint0_linear_171_19235)"/>
<path d="M3.62131 7.91553C5.95381 6.89953 7.50881 6.22969 8.28631 5.90603C10.5088 4.9819 10.9701 4.8214 11.2713 4.81597C11.3376 4.8149 11.4851 4.83128 11.5813 4.90909C11.6613 4.97472 11.6838 5.06347 11.6951 5.12578C11.7051 5.18803 11.7188 5.3299 11.7076 5.44065C11.5876 6.70565 11.0663 9.7754 10.8013 11.1923C10.6901 11.7918 10.4688 11.9928 10.2551 12.0124C9.79006 12.0552 9.43756 11.7054 8.98756 11.4105C8.28381 10.9489 7.88631 10.6617 7.20256 10.2113C6.41256 9.69078 6.92506 9.40465 7.37506 8.93715C7.49256 8.81478 9.54006 6.9529 9.57881 6.78403C9.58381 6.7629 9.58881 6.68415 9.54131 6.64265C9.49506 6.60103 9.42631 6.61528 9.37631 6.62653C9.30506 6.64253 8.18131 7.38603 6.00131 8.8569C5.68256 9.07615 5.39381 9.18303 5.13381 9.1774C4.84881 9.17128 4.29881 9.0159 3.89006 8.88315C3.39006 8.72028 2.99131 8.63415 3.02631 8.35753C3.04381 8.21353 3.24256 8.06615 3.62131 7.91553Z" fill="white"/>
</g>
<defs>
<linearGradient id="paint0_linear_171_19235" x1="800" y1="0" x2="800" y2="1600" gradientUnits="userSpaceOnUse">
<stop stop-color="#2AABEE"/>
<stop offset="1" stop-color="#229ED9"/>
</linearGradient>
<clipPath id="clip0_171_19235">
<rect width="16" height="16" fill="white"/>
</clipPath>
</defs>
</svg>
