<svg width="16" height="16" viewBox="0 0 16 16" fill="none" xmlns="http://www.w3.org/2000/svg">
<g clip-path="url(#clip0_171_19236)">
<mask id="mask0_171_19236" style="mask-type:luminance" maskUnits="userSpaceOnUse" x="0" y="0" width="16" height="16">
<path d="M15.9207 0H0.0791016V16H15.9207V0Z" fill="white"/>
</mask>
<g mask="url(#mask0_171_19236)">
<path d="M0.0791016 7.68C0.0791016 4.05962 0.0791016 2.24942 1.19268 1.12471C2.30625 0 4.09852 0 7.68306 0H8.31672C11.9013 0 13.6935 0 14.8071 1.12471C15.9207 2.24942 15.9207 4.05962 15.9207 7.68V8.32C15.9207 11.9404 15.9207 13.7506 14.8071 14.8753C13.6935 16 11.9013 16 8.31672 16H7.68306C4.09852 16 2.30625 16 1.19268 14.8753C0.0791016 13.7506 0.0791016 11.9404 0.0791016 8.32V7.68Z" fill="#0077FF"/>
<path d="M8.50821 11.5267C4.89764 11.5267 2.83826 9.0267 2.75244 4.8667H4.56103C4.62043 7.92003 5.95374 9.21336 7.00984 9.48003V4.8667H8.71287V7.50001C9.75577 7.38668 10.8513 6.1867 11.221 4.8667H12.924C12.6402 6.49337 11.4521 7.69336 10.6072 8.18668C11.4521 8.58668 12.8053 9.63336 13.3201 11.5267H11.4455C11.0428 10.26 10.0396 9.28003 8.71287 9.14668V11.5267H8.50821Z" fill="white"/>
</g>
</g>
<defs>
<clipPath id="clip0_171_19236">
<rect width="16" height="16" fill="white"/>
</clipPath>
</defs>
</svg>
