<svg width="13" height="13" viewBox="0 0 13 13" fill="currentColor" xmlns="http://www.w3.org/2000/svg">
<path fill-rule="evenodd" clip-rule="evenodd" d="M6.49992 7.47496C6.35626 7.47496 6.21848 7.41789 6.1169 7.3163C6.01532 7.21472 5.95825 7.07695 5.95825 6.93329V4.22496C5.95825 4.0813 6.01532 3.94352 6.1169 3.84194C6.21848 3.74036 6.35626 3.68329 6.49992 3.68329C6.64358 3.68329 6.78135 3.74036 6.88293 3.84194C6.98452 3.94352 7.04159 4.0813 7.04159 4.22496V6.93329C7.04159 7.07695 6.98452 7.21472 6.88293 7.3163C6.78135 7.41789 6.64358 7.47496 6.49992 7.47496Z" />
<path d="M5.92944 8.64386C5.92944 8.49259 5.98954 8.34751 6.0965 8.24055C6.20347 8.13358 6.34855 8.07349 6.49982 8.07349C6.65109 8.07349 6.79617 8.13358 6.90313 8.24055C7.0101 8.34751 7.07019 8.49259 7.07019 8.64386C7.07019 8.79513 7.0101 8.94021 6.90313 9.04718C6.79617 9.15414 6.65109 9.21424 6.49982 9.21424C6.34855 9.21424 6.20347 9.15414 6.0965 9.04718C5.98954 8.94021 5.92944 8.79513 5.92944 8.64386Z" />
<path fill-rule="evenodd" clip-rule="evenodd" d="M8.45373 2.51439L11.6366 8.32106C12.4556 9.81551 11.3804 11.6458 9.68277 11.6458H3.3171C1.61952 11.6458 0.543768 9.81497 1.36331 8.32051L4.54614 2.51385C5.39439 0.967389 7.60548 0.967389 8.45373 2.51385V2.51439ZM7.47656 3.05606C7.05298 2.28201 5.94689 2.28201 5.52331 3.05606L2.33993 8.86164C1.92989 9.60914 2.46777 10.524 3.31656 10.524H9.68223C10.531 10.524 11.0689 9.6086 10.6589 8.8611L7.47656 3.05606Z"/>
</svg>
